<?xml version="1.0" encoding="iso-8859-1"?>
<!-- Generator: Adobe Illustrator 19.0.0, SVG Export Plug-In . SVG Version: 6.00 Build 0)  -->
<svg version="1.1" id="Layer_1" xmlns="http://www.w3.org/2000/svg" xmlns:xlink="http://www.w3.org/1999/xlink" x="0px" y="0px"
	 viewBox="0 0 512 512" style="enable-background:new 0 0 512 512;" xml:space="preserve">
<g>
	<g>
		<path d="M397.905,103.895c-17.828-31.664-38.596-56.748-61.731-74.555C310.884,9.87,283.947,0,256.112,0
			c-27.832,0-54.776,9.869-80.088,29.335c-23.157,17.808-43.952,42.891-61.808,74.55c-35.116,62.258-55.255,145.092-55.255,227.26
			c0,67.295,32.973,135.328,86.054,177.548l4.156,3.306h213.881l4.156-3.306c52.941-42.111,85.829-110.143,85.829-177.548
			C453.038,248.954,432.943,166.125,397.905,103.895z M140.71,118.828c15.838-28.08,33.958-50.078,53.858-65.381
			c19.87-15.282,40.577-23.03,61.544-23.03c20.967,0,41.66,7.747,61.509,23.026c19.876,15.299,37.969,37.295,53.78,65.376
			c30.272,53.766,48.529,124.466,50.938,196.135H89.662C92.077,243.311,110.372,172.616,140.71,118.828z M352.311,481.583H159.912
			c-39.965-33.682-65.885-84.471-69.956-136.211h332.088C417.995,397.198,392.156,447.987,352.311,481.583z"/>
	</g>
</g>
<g>
	<g>
		<rect x="114.054" y="263.18" width="30.417" height="31.286"/>
	</g>
</g>
<g>
	<g>
		<rect x="164.75" y="263.18" width="30.417" height="31.286"/>
	</g>
</g>
<g>
	<g>
		<rect x="215.445" y="263.18" width="30.417" height="31.286"/>
	</g>
</g>
<g>
	<g>
		<rect x="266.141" y="263.18" width="30.417" height="31.286"/>
	</g>
</g>
<g>
	<g>
		<rect x="316.836" y="263.18" width="30.417" height="31.286"/>
	</g>
</g>
<g>
	<g>
		<rect x="367.531" y="263.18" width="30.417" height="31.286"/>
	</g>
</g>
<g>
	<g>
		<path d="M256.112,371.331c-23.239,0-42.145,18.905-42.145,42.144s18.906,42.145,42.145,42.145
			c23.239,0,42.145-18.906,42.145-42.145S279.351,371.331,256.112,371.331z M256.112,425.204c-6.467,0-11.728-5.261-11.728-11.728
			c0-6.467,5.261-11.727,11.728-11.727c6.467,0,11.728,5.26,11.728,11.727S262.579,425.204,256.112,425.204z"/>
	</g>
</g>
<g>
</g>
<g>
</g>
<g>
</g>
<g>
</g>
<g>
</g>
<g>
</g>
<g>
</g>
<g>
</g>
<g>
</g>
<g>
</g>
<g>
</g>
<g>
</g>
<g>
</g>
<g>
</g>
<g>
</g>
</svg>
